<svg xmlns="http://www.w3.org/2000/svg" version="1.1" xmlns:xlink="http://www.w3.org/1999/xlink" xmlns:svgjs="http://svgjs.dev/svgjs" width="1440" height="560" preserveAspectRatio="none" viewBox="0 0 1440 560"><g mask="url(&quot;#SvgjsMask1683&quot;)" fill="none"><use xlink:href="#SvgjsG1693" transform="translate(0, 0)" fill="#0f457b"></use><use xlink:href="#SvgjsG1693" transform="translate(0, 500)" fill="#0f457b"></use><use xlink:href="#SvgjsG1693" transform="translate(500, 0)" fill="#0f457b"></use><use xlink:href="#SvgjsG1693" transform="translate(500, 500)" fill="#0f457b"></use><use xlink:href="#SvgjsG1693" transform="translate(1000, 0)" fill="#0f457b"></use><use xlink:href="#SvgjsG1693" transform="translate(1000, 500)" fill="#0f457b"></use></g><defs><mask id="SvgjsMask1683"><rect width="1440" height="560" fill="#ffffff"></rect></mask><g id="SvgjsG1684"><path d="M11.974 14.95h-0.243c-0.142-0.162-0.195-0.364-0.152-0.614 0.071-0.413 0.364-0.754 0.504-0.803l-0.002-0.005a0.525 0.525 0 0 0 0.346-0.491l0.01-10.776c0-0.289-0.234-0.525-0.517-0.527 0 0-2.157-0.002-2.749-0.006l0.003-1.204c0-0.213-0.123-0.403-0.318-0.485a0.517 0.517 0 0 0-0.564 0.11L4.684 3.773C4.051 4.41 3.55 5.613 3.549 6.518L3.52 14.057c-0.002 1.054 0.844 1.918 1.892 1.923l6.56 0.02c0.285 0 0.518-0.235 0.518-0.521v-0.002c0-0.291-0.229-0.525-0.516-0.526M11.398 2.784c0 0.899-0.008 8.829-0.01 9.73h-5.912l3.702-3.137-0.007-6.597c0.336 0.002 1.916 0.004 2.227 0.004M4.557 14.06s0.002-0.434 0.002-0.498H10.75c-0.089 0.19-0.16 0.391-0.194 0.594-0.049 0.28-0.024 0.542 0.038 0.79l-5.179-0.016c-0.474 0-0.858-0.389-0.858-0.87"></path></g><g id="SvgjsG1686"><path d="M3.312 10.09l3.972 2.294-0.394 0.681L2.919 10.771 3.312 10.09z"></path><path d="M10.944 14.37c1.147-1.084 1.874-2.605 1.874-4.304 0-2.093-1.099-3.981-2.809-5.041l1.915-3.315-0.3-0.174L12.096 0.715 10.858 0 10.384 0.82l-0.317-0.183-4.708 8.156 0.411 0.238-0.584 1.01 1.035 0.597 0.584-1.01 0.41 0.237 1.98-3.429c1.214 0.774 1.993 2.13 1.993 3.63 0 2.373-1.932 4.304-4.305 4.304H3.413V16h9.766V14.37H10.944z"></path></g><g id="SvgjsG1689"><path d="M7.867 14.689a9.978 9.978 0 0 0-1.863-6.862A9.989 9.989 0 0 0 0.059 3.924 9.973 9.973 0 0 0 1.92 10.788a9.979 9.979 0 0 0 5.947 3.902z m-0.971-7.508a11.292 11.292 0 0 1 1 1.675 11.329 11.329 0 0 1 0.996-1.675 11.095 11.095 0 0 1 1.477-1.65A9.969 9.969 0 0 0 7.914 0a9.977 9.977 0 0 0-2.456 5.564 11.227 11.227 0 0 1 1.438 1.617z m8.833-3.258a9.988 9.988 0 0 0-5.945 3.904 10.058 10.058 0 0 0-1.314 2.479 11.075 11.075 0 0 1 0.513 4.081 9.966 9.966 0 0 0 4.886-3.599A9.973 9.973 0 0 0 15.729 3.924z" fill-rule="evenodd"></path></g><g id="SvgjsG1685"><path d="M11.675 13.031H3.563V2.436h8.112v10.595z m-4.054 1.54a0.457 0.457 0 1 1 0-0.912 0.457 0.457 0 0 1 0 0.912zM6.921 1.287h1.395c0.196 0 0.196 0.356 0 0.356h-1.397c-0.199 0-0.199-0.356 0-0.356zM11.495 0.409H3.744C3.413 0.409 3.143 0.761 3.143 1.191V14.276c0 0.427 0.267 0.779 0.601 0.778h7.751c0.332 0 0.604-0.35 0.605-0.778V1.191c0-0.432-0.272-0.782-0.605-0.782z" fill-rule="evenodd"></path></g><g id="SvgjsG1687"><path d="M16 14.068H0V2h16v12.068z m-14.107-1.117h12.214L10.088 8.837l-0.761 0.766c-0.33 0.329-0.801 0.518-1.297 0.517l-0.008 0c-0.498-0.002-0.971-0.195-1.299-0.529l-0.773-0.783-4.057 4.144zM1.116 3.916v8.233L5.165 8.014 1.116 3.916zM10.874 8.045l4.01 4.104V4.008l-4.01 4.037zM1.896 3.117l5.622 5.691c0.122 0.124 0.307 0.195 0.508 0.195h0.003c0.198 0 0.388-0.07 0.506-0.189L14.196 3.116H1.896z"></path></g><g id="SvgjsG1692"><path d="M5.952 10.09l3.972 2.294-0.394 0.681L5.559 10.771z"></path><path d="M13.584 14.37c1.147-1.084 1.874-2.605 1.874-4.304 0-2.093-1.099-3.981-2.809-5.041l1.915-3.315-0.3-0.174L14.736 0.715 13.498 0 13.024 0.82l-0.317-0.183-4.708 8.156 0.411 0.238-0.584 1.01 1.035 0.597 0.584-1.01 0.41 0.237 1.98-3.429c1.214 0.774 1.993 2.13 1.993 3.63 0 2.373-1.932 4.304-4.305 4.304H6.053V16h9.766V14.37H13.584zM4.916 1.838V0.545h0.159l-0.003-0.311h-1.451l0.003 0.311h0.171v1.293H2.712V0.545h0.158l-0.001-0.311H1.416l0.003 0.311h0.171v1.293H0v6.481h6.491V1.838h-1.576z m1.026 5.932H0.549V2.387h1.041v4.141c0 0.314 0.256 0.568 0.565 0.568 0.31-0.001 0.557-0.255 0.557-0.568V2.387h1.082v4.141c0 0.314 0.256 0.568 0.566 0.568 0.31-0.001 0.556-0.255 0.555-0.568V2.387h1.027v5.383z"></path></g><g id="SvgjsG1688"><path d="M1.507 0.867v14.666h12.877V0.867h-12.878z m3.76 12.876H3.087V11.564H5.267v2.179z m0-3.328H3.087V8.236H5.267v2.179z m3.768 3.328H6.856V11.564h2.179v2.179z m0-3.328H6.856V8.236h2.179v2.179z m3.775 3.328H10.631v-5.507h2.179v5.507z m0.08-7.65h-9.78V2.602h9.78V6.093z"></path></g><g id="SvgjsG1691"><path d="M8.655 0C5.901 0 3.36 2.069 2.833 4.347 2.715 4.854 2.582 6.177 2.582 6.177L1.318 9.37A0.469 0.469 0 0 0 1.28 9.561a0.488 0.488 0 0 0 0.489 0.488h0.814v1.697c0 1.324 1.07 2.396 2.392 2.396h0.952V16h3.535v-0.829h1.44V16h1.503V10.847c1.413-1.111 2.322-2.838 2.322-4.774C14.726 2.718 12.01 0 8.655 0zM4.077 7.387a0.682 0.682 0 0 1-0.682-0.682c0-0.375 0.306-0.68 0.682-0.68a0.681 0.681 0 0 1 0.679 0.68c0 0.377-0.306 0.682-0.68 0.682z m5.385 4.46h1.44v0.779h-1.44v-0.779z m0-1.108h1.44v0.778h-1.44V10.739z m0 2.215h1.44v0.78h-1.44v-0.78z m0 1.109h1.44v0.78h-1.44V14.062z m0-4.431h1.448c-0.003 0.057-0.009 0.113-0.009 0.172v0.607h-1.44V9.632z m3.986-4.488a1.557 1.557 0 0 1-0.427 1.071c-0.045 0.592-0.42 1.091-0.942 1.316v0.005c-0.637 0.372-1.019 1.005-1.135 1.766H10.354v-1.765c0.004-0.55 0.177-0.902 0.539-1.119a1.907 1.907 0 0 0 0.356-0.26 1.229 1.229 0 0 1 0.659 0.556c0.032 0.053 0.088 0.083 0.144 0.082 0.027 0 0.055-0.007 0.08-0.021a0.163 0.163 0 0 0 0.064-0.224h-0.001a1.563 1.563 0 0 0-0.721-0.657c0.15-0.231 0.234-0.506 0.23-0.837 0-0.002 0.002-0.003 0.003-0.006 0-0.149-0.022-0.294-0.062-0.431a1.572 1.572 0 0 0 0.871-0.486 0.164 0.164 0 0 0-0.011-0.234 0.164 0.164 0 0 0-0.232 0.011 1.248 1.248 0 0 1-0.755 0.396c-0.24-0.444-0.686-0.76-1.209-0.818a1.235 1.235 0 0 1 0.353-0.724 0.166 0.166 0 0 0 0-0.233 0.166 0.166 0 0 0-0.234 0 1.572 1.572 0 0 0-0.45 0.937 1.244 1.244 0 0 1-1.088-1.234c0-0.09-0.075-0.165-0.163-0.165-0.093 0-0.166 0.075-0.167 0.165 0 0.107 0.01 0.21 0.031 0.31a1.24 1.24 0 0 1-1.235 0.229s-0.002 0-0.003-0.001a1.225 1.225 0 0 1-0.453-0.289c-0.063-0.064-0.168-0.064-0.233 0-0.065 0.064-0.065 0.168 0 0.233a1.59 1.59 0 0 0 0.452 0.316c-0.033 0.411-0.271 0.764-0.605 0.963a1.578 1.578 0 0 0-0.84-0.639 0.166 0.166 0 0 0-0.209 0.107c-0.024 0.087 0.02 0.179 0.108 0.207a1.247 1.247 0 0 1 0.63 0.455 1.221 1.221 0 0 1-0.32 0.042h-0.02a1.568 1.568 0 0 0-1.096 0.444 0.161 0.161 0 0 0-0.003 0.233 0.162 0.162 0 0 0 0.231 0.003 1.236 1.236 0 0 1 0.868-0.35h0.019c0.794 0 1.453-0.591 1.557-1.358 0.113 0.024 0.226 0.038 0.34 0.038A1.574 1.574 0 0 0 8.699 2.88a1.558 1.558 0 0 0 0.45 0.583 1.556 1.556 0 0 0-0.341 0.82 1.622 1.622 0 0 0-0.256-0.021 1.557 1.557 0 0 0-0.736 0.185c-0.08 0.043-0.111 0.142-0.068 0.224 0.03 0.055 0.088 0.087 0.147 0.087a0.144 0.144 0 0 0 0.075-0.02 1.25 1.25 0 0 1 0.583-0.146c0.087 0 0.173 0.01 0.256 0.027a1.576 1.576 0 0 0 0.428 0.92c0.033 0.034 0.076 0.051 0.118 0.051 0.04 0 0.082-0.015 0.115-0.046 0.067-0.063 0.069-0.167 0.005-0.232h-0.001a1.253 1.253 0 0 1-0.345-0.829c0-0.004 0.001-0.008 0-0.013v-0.018a1.237 1.237 0 0 1 0.299-0.81 1.57 1.57 0 0 0 0.701 0.166s0.001 0 0.003 0h0.003a1.244 1.244 0 0 1 1.241 1.24 1.566 1.566 0 0 0-0.401-0.052c-0.196 0-0.395 0.036-0.587 0.114a0.164 0.164 0 0 0-0.091 0.215c0.035 0.084 0.129 0.125 0.214 0.09a1.247 1.247 0 0 1 0.464-0.091c0.124 0 0.248 0.019 0.363 0.055a0.953 0.953 0 0 1-0.242 0.464 0.14 0.14 0 0 0-0.025 0.029c-0.094 0.092-0.207 0.177-0.346 0.262-0.477 0.278-0.706 0.784-0.701 1.403V9.301h-0.563V7.624c0-0.616-0.386-1.201-0.873-1.409-0.232-0.09-0.474-0.241-0.65-0.438a1.558 1.558 0 0 1-0.878 0.271 1.555 1.555 0 0 1-0.877-0.269 1.581 1.581 0 0 1-0.87 0.26c-0.883 0-1.596-0.715-1.597-1.597 0-0.659 0.398-1.224 0.969-1.467 0.154-0.703 0.777-1.229 1.527-1.23 0.04 0 0.076 0.003 0.113 0.006a1.567 1.567 0 0 1 1.295-0.684c0.266 0 0.516 0.066 0.736 0.185a1.558 1.558 0 0 1 1.925 0.158 1.553 1.553 0 0 1 0.365-0.044c0.633 0 1.18 0.381 1.424 0.926 0.642 0.195 1.11 0.79 1.11 1.496a1.576 1.576 0 0 1-0.054 0.408 1.561 1.561 0 0 1 0.321 0.948z"></path></g><g id="SvgjsG1690"><path d="M6.041 12.752H4.028v-5.742h2.013v5.742z m4.878-5.742h2.014v5.742H10.919v-5.742z m-3.559 0H9.6v5.742H7.36v-5.742z m-5.271 5.742L1.244 14.144l14.525-0.025-0.791-1.369h-0.729v-5.742h1.422V5.008H14.596L8.596 2.974l-6.116 2.034h-1.102v2h1.333v5.742h-0.622z" fill-rule="evenodd"></path></g><g id="SvgjsG1693"><use xlink:href="#SvgjsG1684" transform="translate(0, 0) scale(2)" fill="#0f457b"></use><use xlink:href="#SvgjsG1684" transform="translate(0, 50) scale(2)" fill="#0f457b"></use><use xlink:href="#SvgjsG1685" transform="translate(0, 100) scale(2)" fill="#0f457b"></use><use xlink:href="#SvgjsG1685" transform="translate(0, 150) scale(2)" fill="#0f457b"></use><use xlink:href="#SvgjsG1686" transform="translate(0, 200) scale(2)" fill="#0f457b"></use><use xlink:href="#SvgjsG1685" transform="translate(0, 250) scale(2)" fill="#0f457b"></use><use xlink:href="#SvgjsG1687" transform="translate(0, 300) scale(2)" fill="#0f457b"></use><use xlink:href="#SvgjsG1688" transform="translate(0, 350) scale(2)" fill="#0f457b"></use><use xlink:href="#SvgjsG1687" transform="translate(0, 400) scale(2)" fill="#0f457b"></use><use xlink:href="#SvgjsG1689" transform="translate(0, 450) scale(2)" fill="#0f457b"></use><use xlink:href="#SvgjsG1688" transform="translate(50, 0) scale(2)" fill="#0f457b"></use><use xlink:href="#SvgjsG1688" transform="translate(50, 50) scale(2)" fill="#0f457b"></use><use xlink:href="#SvgjsG1687" transform="translate(50, 100) scale(2)" fill="#0f457b"></use><use xlink:href="#SvgjsG1686" transform="translate(50, 150) scale(2)" fill="#0f457b"></use><use xlink:href="#SvgjsG1685" transform="translate(50, 200) scale(2)" fill="#0f457b"></use><use xlink:href="#SvgjsG1688" transform="translate(50, 250) scale(2)" fill="#0f457b"></use><use xlink:href="#SvgjsG1690" transform="translate(50, 300) scale(2)" fill="#0f457b"></use><use xlink:href="#SvgjsG1690" transform="translate(50, 350) scale(2)" fill="#0f457b"></use><use xlink:href="#SvgjsG1691" transform="translate(50, 400) scale(2)" fill="#0f457b"></use><use xlink:href="#SvgjsG1692" transform="translate(50, 450) scale(2)" fill="#0f457b"></use><use xlink:href="#SvgjsG1686" transform="translate(100, 0) scale(2)" fill="#0f457b"></use><use xlink:href="#SvgjsG1691" transform="translate(100, 50) scale(2)" fill="#0f457b"></use><use xlink:href="#SvgjsG1687" transform="translate(100, 100) scale(2)" fill="#0f457b"></use><use xlink:href="#SvgjsG1687" transform="translate(100, 150) scale(2)" fill="#0f457b"></use><use xlink:href="#SvgjsG1686" transform="translate(100, 200) scale(2)" fill="#0f457b"></use><use xlink:href="#SvgjsG1691" transform="translate(100, 250) scale(2)" fill="#0f457b"></use><use xlink:href="#SvgjsG1684" transform="translate(100, 300) scale(2)" fill="#0f457b"></use><use xlink:href="#SvgjsG1686" transform="translate(100, 350) scale(2)" fill="#0f457b"></use><use xlink:href="#SvgjsG1691" transform="translate(100, 400) scale(2)" fill="#0f457b"></use><use xlink:href="#SvgjsG1691" transform="translate(100, 450) scale(2)" fill="#0f457b"></use><use xlink:href="#SvgjsG1684" transform="translate(150, 0) scale(2)" fill="#0f457b"></use><use xlink:href="#SvgjsG1684" transform="translate(150, 50) scale(2)" fill="#0f457b"></use><use xlink:href="#SvgjsG1686" transform="translate(150, 100) scale(2)" fill="#0f457b"></use><use xlink:href="#SvgjsG1691" transform="translate(150, 150) scale(2)" fill="#0f457b"></use><use xlink:href="#SvgjsG1686" transform="translate(150, 200) scale(2)" fill="#0f457b"></use><use xlink:href="#SvgjsG1692" transform="translate(150, 250) scale(2)" fill="#0f457b"></use><use xlink:href="#SvgjsG1688" transform="translate(150, 300) scale(2)" fill="#0f457b"></use><use xlink:href="#SvgjsG1690" transform="translate(150, 350) scale(2)" fill="#0f457b"></use><use xlink:href="#SvgjsG1690" transform="translate(150, 400) scale(2)" fill="#0f457b"></use><use xlink:href="#SvgjsG1687" transform="translate(150, 450) scale(2)" fill="#0f457b"></use><use xlink:href="#SvgjsG1691" transform="translate(200, 0) scale(2)" fill="#0f457b"></use><use xlink:href="#SvgjsG1686" transform="translate(200, 50) scale(2)" fill="#0f457b"></use><use xlink:href="#SvgjsG1691" transform="translate(200, 100) scale(2)" fill="#0f457b"></use><use xlink:href="#SvgjsG1690" transform="translate(200, 150) scale(2)" fill="#0f457b"></use><use xlink:href="#SvgjsG1689" transform="translate(200, 200) scale(2)" fill="#0f457b"></use><use xlink:href="#SvgjsG1689" transform="translate(200, 250) scale(2)" fill="#0f457b"></use><use xlink:href="#SvgjsG1691" transform="translate(200, 300) scale(2)" fill="#0f457b"></use><use xlink:href="#SvgjsG1684" transform="translate(200, 350) scale(2)" fill="#0f457b"></use><use xlink:href="#SvgjsG1685" transform="translate(200, 400) scale(2)" fill="#0f457b"></use><use xlink:href="#SvgjsG1687" transform="translate(200, 450) scale(2)" fill="#0f457b"></use><use xlink:href="#SvgjsG1687" transform="translate(250, 0) scale(2)" fill="#0f457b"></use><use xlink:href="#SvgjsG1685" transform="translate(250, 50) scale(2)" fill="#0f457b"></use><use xlink:href="#SvgjsG1686" transform="translate(250, 100) scale(2)" fill="#0f457b"></use><use xlink:href="#SvgjsG1687" transform="translate(250, 150) scale(2)" fill="#0f457b"></use><use xlink:href="#SvgjsG1692" transform="translate(250, 200) scale(2)" fill="#0f457b"></use><use xlink:href="#SvgjsG1692" transform="translate(250, 250) scale(2)" fill="#0f457b"></use><use xlink:href="#SvgjsG1687" transform="translate(250, 300) scale(2)" fill="#0f457b"></use><use xlink:href="#SvgjsG1688" transform="translate(250, 350) scale(2)" fill="#0f457b"></use><use xlink:href="#SvgjsG1687" transform="translate(250, 400) scale(2)" fill="#0f457b"></use><use xlink:href="#SvgjsG1689" transform="translate(250, 450) scale(2)" fill="#0f457b"></use><use xlink:href="#SvgjsG1691" transform="translate(300, 0) scale(2)" fill="#0f457b"></use><use xlink:href="#SvgjsG1692" transform="translate(300, 50) scale(2)" fill="#0f457b"></use><use xlink:href="#SvgjsG1689" transform="translate(300, 100) scale(2)" fill="#0f457b"></use><use xlink:href="#SvgjsG1692" transform="translate(300, 150) scale(2)" fill="#0f457b"></use><use xlink:href="#SvgjsG1692" transform="translate(300, 200) scale(2)" fill="#0f457b"></use><use xlink:href="#SvgjsG1689" transform="translate(300, 250) scale(2)" fill="#0f457b"></use><use xlink:href="#SvgjsG1690" transform="translate(300, 300) scale(2)" fill="#0f457b"></use><use xlink:href="#SvgjsG1688" transform="translate(300, 350) scale(2)" fill="#0f457b"></use><use xlink:href="#SvgjsG1686" transform="translate(300, 400) scale(2)" fill="#0f457b"></use><use xlink:href="#SvgjsG1686" transform="translate(300, 450) scale(2)" fill="#0f457b"></use><use xlink:href="#SvgjsG1690" transform="translate(350, 0) scale(2)" fill="#0f457b"></use><use xlink:href="#SvgjsG1687" transform="translate(350, 50) scale(2)" fill="#0f457b"></use><use xlink:href="#SvgjsG1691" transform="translate(350, 100) scale(2)" fill="#0f457b"></use><use xlink:href="#SvgjsG1690" transform="translate(350, 150) scale(2)" fill="#0f457b"></use><use xlink:href="#SvgjsG1686" transform="translate(350, 200) scale(2)" fill="#0f457b"></use><use xlink:href="#SvgjsG1690" transform="translate(350, 250) scale(2)" fill="#0f457b"></use><use xlink:href="#SvgjsG1689" transform="translate(350, 300) scale(2)" fill="#0f457b"></use><use xlink:href="#SvgjsG1687" transform="translate(350, 350) scale(2)" fill="#0f457b"></use><use xlink:href="#SvgjsG1684" transform="translate(350, 400) scale(2)" fill="#0f457b"></use><use xlink:href="#SvgjsG1692" transform="translate(350, 450) scale(2)" fill="#0f457b"></use><use xlink:href="#SvgjsG1691" transform="translate(400, 0) scale(2)" fill="#0f457b"></use><use xlink:href="#SvgjsG1688" transform="translate(400, 50) scale(2)" fill="#0f457b"></use><use xlink:href="#SvgjsG1688" transform="translate(400, 100) scale(2)" fill="#0f457b"></use><use xlink:href="#SvgjsG1690" transform="translate(400, 150) scale(2)" fill="#0f457b"></use><use xlink:href="#SvgjsG1686" transform="translate(400, 200) scale(2)" fill="#0f457b"></use><use xlink:href="#SvgjsG1684" transform="translate(400, 250) scale(2)" fill="#0f457b"></use><use xlink:href="#SvgjsG1686" transform="translate(400, 300) scale(2)" fill="#0f457b"></use><use xlink:href="#SvgjsG1687" transform="translate(400, 350) scale(2)" fill="#0f457b"></use><use xlink:href="#SvgjsG1691" transform="translate(400, 400) scale(2)" fill="#0f457b"></use><use xlink:href="#SvgjsG1691" transform="translate(400, 450) scale(2)" fill="#0f457b"></use><use xlink:href="#SvgjsG1686" transform="translate(450, 0) scale(2)" fill="#0f457b"></use><use xlink:href="#SvgjsG1690" transform="translate(450, 50) scale(2)" fill="#0f457b"></use><use xlink:href="#SvgjsG1687" transform="translate(450, 100) scale(2)" fill="#0f457b"></use><use xlink:href="#SvgjsG1689" transform="translate(450, 150) scale(2)" fill="#0f457b"></use><use xlink:href="#SvgjsG1687" transform="translate(450, 200) scale(2)" fill="#0f457b"></use><use xlink:href="#SvgjsG1691" transform="translate(450, 250) scale(2)" fill="#0f457b"></use><use xlink:href="#SvgjsG1685" transform="translate(450, 300) scale(2)" fill="#0f457b"></use><use xlink:href="#SvgjsG1689" transform="translate(450, 350) scale(2)" fill="#0f457b"></use><use xlink:href="#SvgjsG1690" transform="translate(450, 400) scale(2)" fill="#0f457b"></use><use xlink:href="#SvgjsG1692" transform="translate(450, 450) scale(2)" fill="#0f457b"></use></g></defs></svg>