<svg xmlns="http://www.w3.org/2000/svg" version="1.1" xmlns:xlink="http://www.w3.org/1999/xlink" xmlns:svgjs="http://svgjs.dev/svgjs" width="1440" height="560" preserveAspectRatio="none" viewBox="0 0 1440 560"><g mask="url(&quot;#SvgjsMask1017&quot;)" fill="none"><rect width="1440" height="560" x="0" y="0" fill="rgba(228, 215, 218, 1)"></rect><path d="M0,422.057C86.247,411.728,175.369,432.213,253.877,395.041C338.215,355.109,405.061,286.826,453.746,207.219C506.825,120.426,574.312,18.769,543.233,-78.105C511.756,-176.221,387.228,-203.178,303.029,-262.576C240.423,-306.741,184.565,-356.959,112.214,-382.166C36.937,-408.392,-40.815,-414.352,-120.417,-410.102C-220.251,-404.771,-334.051,-420.584,-408.93,-354.34C-484.656,-287.347,-492.366,-172.838,-502.336,-72.225C-511.967,24.961,-500.308,121.309,-465.091,212.4C-428.228,307.749,-389.412,418.91,-296.216,460.921C-203.552,502.693,-100.923,434.144,0,422.057" fill="#c0a2a9"></path><path d="M1440 888.665C1509.638 884.271 1582.405 909.8879999999999 1644.85 878.7529999999999 1709.798 846.37 1759.742 785.5029999999999 1784.05 717.1220000000001 1807.47 651.239 1789.651 580.224 1775.298 511.791 1761.7640000000001 447.26300000000003 1735.972 389.131 1703.253 331.89 1663.223 261.858 1640.853 162.24400000000003 1563.139 140.62599999999998 1485.227 118.95299999999997 1422.687 214.745 1343.648 231.856 1254.988 251.05 1141.658 181.777 1077.382 245.79000000000002 1014.492 308.422 1063.248 417.86 1067.878 506.497 1071.617 578.079 1076.656 647.321 1101.862 714.423 1128.624 785.665 1150.184 870.837 1217.834 905.697 1285.221 940.422 1364.342 893.4390000000001 1440 888.665" fill="#ffffff"></path></g><defs><mask id="SvgjsMask1017"><rect width="1440" height="560" fill="#ffffff"></rect></mask></defs></svg>